<svg xmlns="http://www.w3.org/2000/svg" viewBox="0 0 149.26 114.00">

<defs>
  <linearGradient id="symbolGradient" x1="0%" y1="0%" x2="100%" y2="100%">
    <stop offset="0%" stop-color="#0057FF"/>
    <stop offset="55%" stop-color="#007CFF"/>
    <stop offset="100%" stop-color="#00C8F2"/>
  </linearGradient>
  <linearGradient id="wordGradient" x1="0%" y1="0%" x2="100%" y2="0%">
    <stop offset="0%" stop-color="#071A45"/>
    <stop offset="48%" stop-color="#075DFF"/>
    <stop offset="100%" stop-color="#006BFF"/>
  </linearGradient>
</defs>

<path d="M 38.750,82.000 L 38.750,82.500 L 38.500,82.750 L 38.500,85.250 L 39.750,86.250 L 42.750,86.250 L 43.750,85.500 L 43.750,82.000 L 43.250,81.500 L 42.250,81.500 L 42.000,81.250 L 39.750,81.250 Z M 26.000,75.000 L 25.500,76.000 L 25.500,80.500 L 26.250,81.500 L 26.750,81.500 L 27.000,81.750 L 27.500,81.500 L 32.000,81.500 L 32.750,80.750 L 32.750,75.500 L 32.000,74.750 L 31.500,74.750 L 31.250,74.500 L 27.000,74.500 Z M 13.500,67.250 L 13.000,68.000 L 13.000,72.250 L 13.250,72.750 L 14.500,73.250 L 17.750,73.250 L 18.000,73.000 L 18.500,73.000 L 19.250,72.000 L 19.250,68.250 L 19.000,67.750 L 18.000,67.000 L 14.000,67.000 Z M 5.500,55.000 L 5.000,55.500 L 5.000,60.000 L 5.250,60.500 L 5.750,60.750 L 10.000,60.750 L 10.500,60.500 L 11.000,59.750 L 11.000,56.250 L 10.750,56.000 L 10.750,55.500 L 10.000,55.000 Z M 22.500,53.500 L 21.250,55.250 L 21.250,63.000 L 21.500,63.500 L 23.000,64.750 L 31.000,64.750 L 31.500,64.500 L 32.500,63.000 L 32.500,59.250 L 32.250,59.000 L 32.250,55.750 L 32.500,55.500 L 32.500,55.000 L 32.250,54.750 L 32.250,54.250 L 31.000,53.250 L 23.000,53.250 Z M 13.750,40.750 L 13.000,41.500 L 13.000,47.250 L 14.000,48.250 L 14.500,48.250 L 14.750,48.500 L 15.250,48.250 L 16.000,48.250 L 16.250,48.500 L 18.250,48.250 L 18.750,48.500 L 20.000,48.000 L 20.750,47.000 L 20.750,42.250 L 20.500,42.000 L 20.500,41.500 L 19.750,40.750 L 15.000,40.750 L 14.750,40.500 L 14.500,40.750 Z M 25.750,28.250 L 25.000,29.250 L 25.000,35.000 L 25.250,35.500 L 26.500,36.500 L 32.000,36.500 L 32.500,36.250 L 33.750,34.750 L 33.750,29.250 L 33.500,28.750 L 32.000,27.750 L 26.750,27.750 Z M 66.750,29.250 L 66.000,30.000 L 64.750,30.250 L 62.500,32.000 L 62.000,32.000 L 60.750,33.000 L 60.000,33.250 L 59.750,33.750 L 59.500,33.750 L 58.250,35.000 L 55.250,37.250 L 55.000,37.750 L 54.500,38.000 L 53.000,39.500 L 53.000,39.750 L 52.500,40.000 L 50.000,42.500 L 50.000,42.750 L 49.000,43.500 L 49.000,43.750 L 47.750,45.000 L 47.000,46.250 L 45.250,48.250 L 45.250,48.750 L 45.750,49.000 L 53.000,49.000 L 54.500,49.750 L 55.250,50.750 L 55.750,51.000 L 56.500,52.500 L 56.500,61.000 L 56.000,62.250 L 55.250,63.250 L 53.250,65.000 L 36.750,65.000 L 36.000,65.500 L 36.000,69.750 L 36.250,70.250 L 37.000,70.750 L 41.500,70.750 L 41.750,71.000 L 43.500,71.000 L 45.250,72.500 L 45.500,73.250 L 46.000,73.750 L 46.000,74.250 L 47.000,76.250 L 47.250,77.500 L 47.750,78.000 L 48.250,79.500 L 48.750,80.000 L 49.250,81.250 L 51.000,83.750 L 51.250,84.500 L 52.000,85.250 L 52.250,86.000 L 54.000,88.000 L 54.000,88.250 L 55.500,89.750 L 55.500,90.000 L 57.250,91.750 L 57.500,91.750 L 57.750,91.500 L 57.750,91.000 L 57.250,90.250 L 57.000,88.750 L 56.750,88.500 L 56.500,78.250 L 56.750,78.000 L 56.750,76.250 L 57.500,74.750 L 57.750,72.000 L 58.750,70.000 L 58.750,68.750 L 59.750,67.250 L 60.000,66.000 L 60.750,65.250 L 60.750,64.250 L 61.750,63.000 L 61.750,62.000 L 62.500,61.250 L 62.750,60.250 L 63.750,59.250 L 63.750,58.500 L 64.750,57.500 L 64.750,57.000 L 65.750,56.000 L 65.750,55.500 L 66.500,54.750 L 66.750,54.000 L 67.750,53.000 L 70.750,49.000 L 72.750,47.000 L 72.750,46.750 L 77.000,42.750 L 77.250,42.750 L 79.500,40.750 L 79.750,41.000 L 79.750,41.500 L 79.250,41.750 L 78.000,43.250 L 77.750,43.250 L 77.750,43.500 L 70.000,51.500 L 69.250,52.500 L 69.000,53.250 L 67.250,55.250 L 67.000,56.000 L 66.000,57.000 L 66.000,57.500 L 65.250,58.250 L 65.000,59.250 L 64.000,60.500 L 64.000,61.000 L 63.000,62.000 L 63.000,62.750 L 62.000,63.750 L 62.000,64.750 L 61.750,65.250 L 61.250,65.500 L 61.000,66.000 L 61.000,67.000 L 60.250,68.250 L 59.750,70.500 L 59.250,71.000 L 59.000,73.750 L 58.750,74.000 L 58.750,74.750 L 58.250,75.500 L 58.250,78.750 L 58.000,79.000 L 58.000,86.750 L 58.250,87.000 L 58.250,88.250 L 59.000,90.250 L 59.000,91.250 L 59.250,91.500 L 59.250,92.000 L 59.750,92.500 L 60.000,94.250 L 62.750,98.250 L 65.500,101.000 L 67.500,102.500 L 68.750,103.000 L 69.750,103.750 L 70.750,104.000 L 71.250,104.500 L 72.500,104.750 L 73.500,105.500 L 74.750,105.750 L 75.500,106.250 L 76.000,106.250 L 79.250,107.500 L 82.750,108.000 L 84.000,108.500 L 85.750,108.500 L 86.000,108.750 L 95.000,108.750 L 95.250,108.500 L 97.750,108.500 L 98.000,108.250 L 99.000,108.250 L 100.250,107.750 L 103.500,107.500 L 104.250,107.000 L 106.250,106.500 L 106.500,106.250 L 106.500,105.750 L 106.000,105.500 L 106.250,105.250 L 107.500,105.250 L 107.750,105.000 L 109.000,105.000 L 109.250,104.750 L 111.500,104.500 L 112.250,104.000 L 114.500,103.500 L 115.000,103.000 L 116.000,102.500 L 116.500,102.500 L 120.500,100.250 L 122.250,98.750 L 125.250,96.750 L 127.750,94.500 L 128.000,94.500 L 133.750,88.750 L 134.000,88.750 L 136.250,86.250 L 136.750,86.000 L 137.500,85.000 L 138.000,83.500 L 139.500,82.500 L 139.500,81.750 L 138.750,81.000 L 138.500,80.250 L 136.750,78.500 L 136.750,78.250 L 132.500,74.000 L 132.250,74.000 L 129.250,71.250 L 127.000,70.000 L 126.250,70.000 L 125.000,69.250 L 120.500,69.250 L 119.000,70.000 L 117.750,70.250 L 117.250,70.750 L 116.500,71.000 L 114.500,72.750 L 113.500,73.250 L 112.500,74.250 L 111.250,75.000 L 110.250,76.000 L 109.500,76.250 L 107.750,77.750 L 107.000,78.000 L 104.000,80.000 L 103.000,80.250 L 102.000,81.000 L 100.750,81.250 L 99.250,82.000 L 98.250,82.000 L 97.000,82.500 L 95.750,82.500 L 95.500,82.750 L 93.000,82.750 L 92.750,83.000 L 92.750,83.500 L 93.250,83.750 L 94.250,83.750 L 95.750,84.500 L 97.250,84.750 L 99.500,85.750 L 101.250,86.000 L 102.000,86.500 L 105.000,86.750 L 106.250,87.250 L 107.250,87.250 L 108.250,87.750 L 114.750,88.000 L 115.500,88.500 L 115.250,88.750 L 109.000,89.000 L 108.750,88.750 L 107.750,88.750 L 107.500,88.500 L 106.750,88.500 L 105.500,88.000 L 102.750,88.000 L 101.250,87.250 L 99.000,87.000 L 97.500,86.250 L 96.000,86.000 L 94.500,85.250 L 93.250,85.000 L 92.000,84.000 L 91.250,84.000 L 88.750,82.750 L 88.250,82.250 L 87.250,82.000 L 86.500,81.250 L 85.750,81.000 L 84.750,80.000 L 83.500,79.250 L 82.250,78.000 L 82.000,78.000 L 79.000,75.000 L 76.750,72.000 L 75.500,69.500 L 74.750,68.750 L 74.750,68.250 L 74.250,67.250 L 73.750,66.750 L 73.750,66.000 L 73.000,64.250 L 72.500,64.250 L 72.500,67.000 L 72.250,67.250 L 72.250,73.500 L 72.500,73.750 L 72.500,76.000 L 73.000,77.250 L 73.250,79.750 L 73.500,80.000 L 73.500,80.750 L 73.750,81.000 L 74.250,83.000 L 75.000,84.250 L 75.250,85.500 L 76.000,86.500 L 76.000,87.000 L 76.750,88.000 L 77.250,89.250 L 78.000,90.000 L 79.250,92.250 L 80.000,92.750 L 81.250,94.500 L 81.750,94.750 L 82.000,95.250 L 83.250,96.250 L 83.250,96.500 L 83.500,96.500 L 84.500,97.500 L 85.250,97.750 L 87.250,99.500 L 88.250,99.750 L 89.000,100.500 L 90.000,100.750 L 90.750,101.500 L 91.750,101.750 L 92.750,102.500 L 94.250,102.750 L 94.750,103.000 L 95.250,103.750 L 97.250,103.750 L 97.500,104.000 L 98.250,104.000 L 99.250,104.750 L 100.750,104.750 L 101.000,105.000 L 105.500,105.000 L 105.750,105.500 L 105.500,105.750 L 103.500,105.750 L 103.250,106.000 L 100.250,106.000 L 100.000,105.750 L 96.250,105.000 L 95.250,104.250 L 93.000,104.000 L 91.750,103.000 L 90.750,103.000 L 90.000,102.250 L 89.500,102.250 L 88.500,101.750 L 86.500,100.250 L 85.750,100.000 L 84.750,99.000 L 83.250,98.000 L 77.750,92.250 L 77.500,91.500 L 75.750,89.500 L 74.250,86.500 L 73.750,86.000 L 73.500,85.000 L 72.750,83.750 L 72.500,82.250 L 71.750,81.000 L 71.500,78.000 L 71.250,77.750 L 71.000,75.500 L 70.750,75.250 L 70.500,65.750 L 70.750,65.500 L 70.750,63.000 L 71.000,62.750 L 71.000,61.750 L 71.250,61.500 L 71.750,59.000 L 72.500,57.250 L 72.750,55.250 L 73.250,54.500 L 73.250,54.000 L 73.750,53.000 L 73.750,52.250 L 74.500,51.000 L 74.500,50.500 L 76.750,46.500 L 77.750,45.500 L 79.750,42.750 L 82.250,40.250 L 82.250,40.000 L 84.000,38.250 L 86.000,36.750 L 86.750,36.500 L 89.250,34.750 L 89.750,34.750 L 91.500,33.750 L 93.500,33.250 L 94.250,32.750 L 95.250,32.750 L 95.500,32.500 L 96.750,32.500 L 97.000,32.250 L 100.750,32.250 L 101.000,32.500 L 103.000,32.500 L 103.250,32.750 L 105.000,33.000 L 105.750,33.500 L 106.250,33.500 L 106.250,33.000 L 105.000,32.000 L 103.250,31.250 L 102.000,30.250 L 101.000,30.000 L 99.500,29.000 L 98.250,28.750 L 97.750,28.250 L 96.500,28.000 L 95.250,27.250 L 94.500,27.250 L 92.000,26.250 L 89.500,26.000 L 89.250,25.750 L 88.250,25.750 L 87.000,25.250 L 80.250,25.250 L 80.000,25.500 L 79.000,25.500 L 78.750,25.750 L 75.750,26.000 L 74.000,26.750 L 72.250,27.000 L 70.500,28.000 L 69.750,28.000 L 68.500,28.500 L 68.000,29.000 Z M 121.500,88.250 L 121.000,88.750 L 116.250,88.750 L 116.000,88.500 L 117.250,88.000 L 119.000,88.000 L 119.250,87.750 L 120.750,87.750 Z M 124.000,87.500 L 124.250,87.250 L 125.250,87.250 L 125.500,87.000 L 127.750,87.000 L 128.000,87.250 L 127.250,87.750 L 124.250,87.750 Z M 134.750,85.000 L 134.250,85.750 L 133.750,86.000 L 132.750,86.000 L 131.500,86.750 L 130.750,86.750 L 130.500,87.000 L 129.250,87.000 L 129.000,86.750 L 129.500,86.000 L 130.000,86.000 L 130.250,85.750 L 131.750,85.750 L 133.750,84.750 L 134.500,84.750 Z M 141.500,29.500 L 140.750,28.000 L 140.000,27.250 L 138.750,25.250 L 134.500,20.250 L 134.250,20.250 L 129.000,15.500 L 126.000,13.250 L 125.250,13.000 L 124.500,12.250 L 123.250,11.750 L 121.000,10.250 L 119.500,9.750 L 119.000,9.250 L 117.750,9.000 L 116.500,8.250 L 114.500,7.750 L 113.000,7.000 L 112.000,7.000 L 110.500,6.250 L 107.000,5.750 L 106.000,5.250 L 104.750,5.250 L 104.500,5.000 L 102.000,5.000 L 101.750,4.750 L 99.500,4.750 L 99.250,4.500 L 95.000,4.500 L 94.750,4.750 L 92.500,4.750 L 92.250,5.000 L 89.250,5.000 L 89.000,5.250 L 87.500,5.250 L 85.500,6.000 L 83.250,6.250 L 82.500,6.750 L 80.250,7.250 L 79.000,8.000 L 78.250,8.000 L 76.500,9.000 L 75.250,9.250 L 74.250,10.000 L 73.000,10.250 L 72.500,10.750 L 71.000,11.250 L 70.500,11.750 L 68.750,12.500 L 68.250,13.000 L 67.750,13.000 L 67.000,13.750 L 66.250,14.000 L 64.000,15.500 L 61.000,18.000 L 60.750,18.000 L 55.250,23.250 L 55.000,23.250 L 55.000,23.500 L 54.500,23.750 L 48.000,30.500 L 44.250,35.500 L 43.750,36.500 L 42.250,38.250 L 42.000,39.000 L 41.250,39.750 L 40.750,40.750 L 39.250,42.500 L 39.000,43.250 L 38.250,44.000 L 37.750,45.250 L 37.000,46.000 L 36.750,46.750 L 36.000,47.500 L 35.500,48.500 L 36.000,49.000 L 42.750,49.000 L 43.000,48.750 L 43.500,48.750 L 44.500,48.000 L 44.750,47.250 L 46.000,46.000 L 46.000,45.750 L 46.750,45.250 L 47.000,44.500 L 47.750,44.000 L 49.750,41.250 L 52.000,38.750 L 52.250,38.750 L 55.500,35.500 L 55.750,35.500 L 56.250,34.750 L 56.500,34.750 L 57.500,33.750 L 58.250,33.500 L 60.250,31.750 L 62.500,30.500 L 63.000,29.750 L 64.000,29.500 L 64.750,28.750 L 65.750,28.500 L 66.500,27.750 L 67.250,27.750 L 68.750,26.750 L 70.250,26.500 L 71.500,25.750 L 73.250,25.500 L 73.750,25.000 L 74.500,25.000 L 74.750,24.750 L 76.750,24.750 L 78.500,24.000 L 80.000,24.000 L 80.250,23.750 L 84.000,23.750 L 84.250,23.500 L 86.000,23.500 L 86.250,23.750 L 89.500,23.750 L 89.750,24.000 L 90.750,24.000 L 91.000,24.250 L 93.000,24.500 L 94.250,25.000 L 95.250,25.000 L 96.500,25.750 L 99.000,26.500 L 103.750,29.000 L 107.000,31.500 L 107.750,31.750 L 108.750,32.750 L 110.250,33.750 L 118.500,41.750 L 121.000,43.500 L 123.500,44.500 L 126.250,44.500 L 126.500,44.250 L 127.250,44.250 L 130.750,42.250 L 141.000,32.250 L 141.500,31.250 Z" fill="url(#symbolGradient)" fill-rule="evenodd"/>
</svg>